<?xml version="1.0" encoding="us-ascii" standalone="no"?><svg xmlns="http://www.w3.org/2000/svg" xmlns:xlink="http://www.w3.org/1999/xlink" contentStyleType="text/css" height="567px" preserveAspectRatio="none" style="width:1031px;height:567px;background:#FFFFFF;" version="1.1" viewBox="0 0 1031 567" width="1031px" zoomAndPan="magnify"><defs/><g><rect fill="#90EE90" height="555.9219" style="stroke:#181818;stroke-width:0.5;" width="103" x="200" y="6"/><text fill="#000000" font-family="sans-serif" font-size="13" font-weight="bold" lengthAdjust="spacing" textLength="92" x="203" y="18.0669">LINE WORKS</text><rect fill="#DDDDDD" height="555.9219" style="stroke:#181818;stroke-width:0.5;" width="139" x="393.5" y="6"/><text fill="#000000" font-family="sans-serif" font-size="13" font-weight="bold" lengthAdjust="spacing" textLength="81" x="422.5" y="18.0669">WebServer</text><rect fill="#DDDDDD" height="555.9219" style="stroke:#181818;stroke-width:0.5;" width="435" x="584.5" y="6"/><text fill="#000000" font-family="sans-serif" font-size="13" font-weight="bold" lengthAdjust="spacing" textLength="79" x="762.5" y="18.0669">Datastore</text><rect fill="#FFFFFF" height="346.0625" style="stroke:#181818;stroke-width:1.0;" width="10" x="246.5" y="118.5625"/><rect fill="#FFFFFF" height="302.9297" style="stroke:#181818;stroke-width:1.0;" width="10" x="458" y="147.6953"/><rect fill="#FFFFFF" height="48.1328" style="stroke:#181818;stroke-width:1.0;" width="10" x="463" y="366.3594"/><rect fill="#FFFFFF" height="14" style="stroke:#181818;stroke-width:1.0;" width="10" x="634" y="315.2266"/><rect fill="#FFFFFF" height="14" style="stroke:#181818;stroke-width:1.0;" width="10" x="726.5" y="228.9609"/><rect fill="#FFFFFF" height="14" style="stroke:#181818;stroke-width:1.0;" width="10" x="832.5" y="272.0938"/><rect fill="#FFFFFF" height="14" style="stroke:#181818;stroke-width:1.0;" width="10" x="958.5" y="161.6953"/><rect fill="#FFFFFF" height="14" style="stroke:#181818;stroke-width:1.0;" width="10" x="958.5" y="400.4922"/><rect fill="none" height="231.7969" style="stroke:#000000;stroke-width:1.5;" width="638" x="387.5" y="190.6953"/><line style="stroke:#181818;stroke-width:0.5;stroke-dasharray:5.0,5.0;" x1="38" x2="38" y1="87.4297" y2="482.625"/><line style="stroke:#181818;stroke-width:0.5;stroke-dasharray:5.0,5.0;" x1="251.5" x2="251.5" y1="87.4297" y2="482.625"/><line style="stroke:#181818;stroke-width:0.5;stroke-dasharray:5.0,5.0;" x1="462.5" x2="462.5" y1="87.4297" y2="482.625"/><line style="stroke:#181818;stroke-width:0.5;stroke-dasharray:5.0,5.0;" x1="638.5" x2="638.5" y1="87.4297" y2="482.625"/><line style="stroke:#181818;stroke-width:0.5;stroke-dasharray:5.0,5.0;" x1="731.5" x2="731.5" y1="87.4297" y2="482.625"/><line style="stroke:#181818;stroke-width:0.5;stroke-dasharray:5.0,5.0;" x1="837.5" x2="837.5" y1="87.4297" y2="482.625"/><line style="stroke:#181818;stroke-width:0.5;stroke-dasharray:5.0,5.0;" x1="963.5" x2="963.5" y1="87.4297" y2="482.625"/><text fill="#000000" font-family="sans-serif" font-size="14" lengthAdjust="spacing" textLength="60" x="5" y="84.1279">Member</text><ellipse cx="38" cy="19.6328" fill="#E2E2F0" rx="8" ry="8" style="stroke:#181818;stroke-width:0.5;"/><path d="M38,27.6328 L38,54.6328 M25,35.6328 L51,35.6328 M38,54.6328 L25,69.6328 M38,54.6328 L51,69.6328 " fill="none" style="stroke:#181818;stroke-width:0.5;"/><text fill="#000000" font-family="sans-serif" font-size="14" lengthAdjust="spacing" textLength="60" x="5" y="494.6201">Member</text><ellipse cx="38" cy="506.4219" fill="#E2E2F0" rx="8" ry="8" style="stroke:#181818;stroke-width:0.5;"/><path d="M38,514.4219 L38,541.4219 M25,522.4219 L51,522.4219 M38,541.4219 L25,556.4219 M38,541.4219 L51,556.4219 " fill="none" style="stroke:#181818;stroke-width:0.5;"/><rect fill="#FFFFFF" height="30.2969" rx="2.5" ry="2.5" style="stroke:#181818;stroke-width:0.5;" width="44" x="229.5" y="56.1328"/><text fill="#000000" font-family="sans-serif" font-size="14" lengthAdjust="spacing" textLength="30" x="236.5" y="76.1279">Talk</text><rect fill="#FFFFFF" height="30.2969" rx="2.5" ry="2.5" style="stroke:#181818;stroke-width:0.5;" width="44" x="229.5" y="481.625"/><text fill="#000000" font-family="sans-serif" font-size="14" lengthAdjust="spacing" textLength="30" x="236.5" y="501.6201">Talk</text><rect fill="#FFFFFF" height="30.2969" rx="2.5" ry="2.5" style="stroke:#181818;stroke-width:0.5;" width="131" x="397.5" y="56.1328"/><text fill="#000000" font-family="sans-serif" font-size="14" lengthAdjust="spacing" textLength="117" x="404.5" y="76.1279">BotAppCallback</text><rect fill="#FFFFFF" height="30.2969" rx="2.5" ry="2.5" style="stroke:#181818;stroke-width:0.5;" width="131" x="397.5" y="481.625"/><text fill="#000000" font-family="sans-serif" font-size="14" lengthAdjust="spacing" textLength="117" x="404.5" y="501.6201">BotAppCallback</text><text fill="#000000" font-family="sans-serif" font-size="14" lengthAdjust="spacing" textLength="95" x="588.5" y="84.1279">Installed App</text><path d="M621,35.1328 C621,25.1328 639,25.1328 639,25.1328 C639,25.1328 657,25.1328 657,35.1328 L657,61.1328 C657,71.1328 639,71.1328 639,71.1328 C639,71.1328 621,71.1328 621,61.1328 L621,35.1328 " fill="#E2E2F0" style="stroke:#181818;stroke-width:1.5;"/><path d="M621,35.1328 C621,45.1328 639,45.1328 639,45.1328 C639,45.1328 657,45.1328 657,35.1328 " fill="none" style="stroke:#181818;stroke-width:1.5;"/><text fill="#000000" font-family="sans-serif" font-size="14" lengthAdjust="spacing" textLength="95" x="588.5" y="494.6201">Installed App</text><path d="M621,507.9219 C621,497.9219 639,497.9219 639,497.9219 C639,497.9219 657,497.9219 657,507.9219 L657,533.9219 C657,543.9219 639,543.9219 639,543.9219 C639,543.9219 621,543.9219 621,533.9219 L621,507.9219 " fill="#E2E2F0" style="stroke:#181818;stroke-width:1.5;"/><path d="M621,507.9219 C621,517.9219 639,517.9219 639,517.9219 C639,517.9219 657,517.9219 657,507.9219 " fill="none" style="stroke:#181818;stroke-width:1.5;"/><text fill="#000000" font-family="sans-serif" font-size="14" lengthAdjust="spacing" textLength="58" x="699.5" y="84.1279">Bot Info</text><path d="M713.5,35.1328 C713.5,25.1328 731.5,25.1328 731.5,25.1328 C731.5,25.1328 749.5,25.1328 749.5,35.1328 L749.5,61.1328 C749.5,71.1328 731.5,71.1328 731.5,71.1328 C731.5,71.1328 713.5,71.1328 713.5,61.1328 L713.5,35.1328 " fill="#E2E2F0" style="stroke:#181818;stroke-width:1.5;"/><path d="M713.5,35.1328 C713.5,45.1328 731.5,45.1328 731.5,45.1328 C731.5,45.1328 749.5,45.1328 749.5,35.1328 " fill="none" style="stroke:#181818;stroke-width:1.5;"/><text fill="#000000" font-family="sans-serif" font-size="14" lengthAdjust="spacing" textLength="58" x="699.5" y="494.6201">Bot Info</text><path d="M713.5,507.9219 C713.5,497.9219 731.5,497.9219 731.5,497.9219 C731.5,497.9219 749.5,497.9219 749.5,507.9219 L749.5,533.9219 C749.5,543.9219 731.5,543.9219 731.5,543.9219 C731.5,543.9219 713.5,543.9219 713.5,533.9219 L713.5,507.9219 " fill="#E2E2F0" style="stroke:#181818;stroke-width:1.5;"/><path d="M713.5,507.9219 C713.5,517.9219 731.5,517.9219 731.5,517.9219 C731.5,517.9219 749.5,517.9219 749.5,507.9219 " fill="none" style="stroke:#181818;stroke-width:1.5;"/><text fill="#000000" font-family="sans-serif" font-size="14" lengthAdjust="spacing" textLength="122" x="773.5" y="84.1279">Client Credential</text><path d="M819.5,35.1328 C819.5,25.1328 837.5,25.1328 837.5,25.1328 C837.5,25.1328 855.5,25.1328 855.5,35.1328 L855.5,61.1328 C855.5,71.1328 837.5,71.1328 837.5,71.1328 C837.5,71.1328 819.5,71.1328 819.5,61.1328 L819.5,35.1328 " fill="#E2E2F0" style="stroke:#181818;stroke-width:1.5;"/><path d="M819.5,35.1328 C819.5,45.1328 837.5,45.1328 837.5,45.1328 C837.5,45.1328 855.5,45.1328 855.5,35.1328 " fill="none" style="stroke:#181818;stroke-width:1.5;"/><text fill="#000000" font-family="sans-serif" font-size="14" lengthAdjust="spacing" textLength="122" x="773.5" y="494.6201">Client Credential</text><path d="M819.5,507.9219 C819.5,497.9219 837.5,497.9219 837.5,497.9219 C837.5,497.9219 855.5,497.9219 855.5,507.9219 L855.5,533.9219 C855.5,543.9219 837.5,543.9219 837.5,543.9219 C837.5,543.9219 819.5,543.9219 819.5,533.9219 L819.5,507.9219 " fill="#E2E2F0" style="stroke:#181818;stroke-width:1.5;"/><path d="M819.5,507.9219 C819.5,517.9219 837.5,517.9219 837.5,517.9219 C837.5,517.9219 855.5,517.9219 855.5,507.9219 " fill="none" style="stroke:#181818;stroke-width:1.5;"/><text fill="#000000" font-family="sans-serif" font-size="14" lengthAdjust="spacing" textLength="98" x="911.5" y="84.1279">Access Token</text><path d="M945.5,35.1328 C945.5,25.1328 963.5,25.1328 963.5,25.1328 C963.5,25.1328 981.5,25.1328 981.5,35.1328 L981.5,61.1328 C981.5,71.1328 963.5,71.1328 963.5,71.1328 C963.5,71.1328 945.5,71.1328 945.5,61.1328 L945.5,35.1328 " fill="#E2E2F0" style="stroke:#181818;stroke-width:1.5;"/><path d="M945.5,35.1328 C945.5,45.1328 963.5,45.1328 963.5,45.1328 C963.5,45.1328 981.5,45.1328 981.5,35.1328 " fill="none" style="stroke:#181818;stroke-width:1.5;"/><text fill="#000000" font-family="sans-serif" font-size="14" lengthAdjust="spacing" textLength="98" x="911.5" y="494.6201">Access Token</text><path d="M945.5,507.9219 C945.5,497.9219 963.5,497.9219 963.5,497.9219 C963.5,497.9219 981.5,497.9219 981.5,507.9219 L981.5,533.9219 C981.5,543.9219 963.5,543.9219 963.5,543.9219 C963.5,543.9219 945.5,543.9219 945.5,533.9219 L945.5,507.9219 " fill="#E2E2F0" style="stroke:#181818;stroke-width:1.5;"/><path d="M945.5,507.9219 C945.5,517.9219 963.5,517.9219 963.5,517.9219 C963.5,517.9219 981.5,517.9219 981.5,507.9219 " fill="none" style="stroke:#181818;stroke-width:1.5;"/><rect fill="#FFFFFF" height="346.0625" style="stroke:#181818;stroke-width:1.0;" width="10" x="246.5" y="118.5625"/><rect fill="#FFFFFF" height="302.9297" style="stroke:#181818;stroke-width:1.0;" width="10" x="458" y="147.6953"/><rect fill="#FFFFFF" height="48.1328" style="stroke:#181818;stroke-width:1.0;" width="10" x="463" y="366.3594"/><rect fill="#FFFFFF" height="14" style="stroke:#181818;stroke-width:1.0;" width="10" x="634" y="315.2266"/><rect fill="#FFFFFF" height="14" style="stroke:#181818;stroke-width:1.0;" width="10" x="726.5" y="228.9609"/><rect fill="#FFFFFF" height="14" style="stroke:#181818;stroke-width:1.0;" width="10" x="832.5" y="272.0938"/><rect fill="#FFFFFF" height="14" style="stroke:#181818;stroke-width:1.0;" width="10" x="958.5" y="161.6953"/><rect fill="#FFFFFF" height="14" style="stroke:#181818;stroke-width:1.0;" width="10" x="958.5" y="400.4922"/><polygon fill="#181818" points="234.5,114.5625,244.5,118.5625,234.5,122.5625,238.5,118.5625" style="stroke:#181818;stroke-width:1.0;"/><line style="stroke:#181818;stroke-width:1.0;" x1="38" x2="240.5" y1="118.5625" y2="118.5625"/><text fill="#000000" font-family="sans-serif" font-size="13" lengthAdjust="spacing" textLength="164" x="45" y="113.4966">Create talk room with bot</text><polygon fill="#181818" points="446,143.6953,456,147.6953,446,151.6953,450,147.6953" style="stroke:#181818;stroke-width:1.0;"/><line style="stroke:#181818;stroke-width:1.0;" x1="256.5" x2="452" y1="147.6953" y2="147.6953"/><text fill="#000000" font-family="sans-serif" font-size="13" lengthAdjust="spacing" textLength="97" x="263.5" y="142.6294">Message event</text><polygon fill="#181818" points="946.5,157.6953,956.5,161.6953,946.5,165.6953,950.5,161.6953" style="stroke:#181818;stroke-width:1.0;"/><line style="stroke:#181818;stroke-width:1.0;" x1="468" x2="952.5" y1="161.6953" y2="161.6953"/><polygon fill="#181818" points="479,171.6953,469,175.6953,479,179.6953,475,175.6953" style="stroke:#181818;stroke-width:1.0;"/><line style="stroke:#181818;stroke-width:1.0;stroke-dasharray:2.0,2.0;" x1="473" x2="962.5" y1="175.6953" y2="175.6953"/><path d="M387.5,190.6953 L453.5,190.6953 L453.5,197.8281 L443.5,207.8281 L387.5,207.8281 L387.5,190.6953 " fill="#EEEEEE" style="stroke:#000000;stroke-width:1.5;"/><rect fill="none" height="231.7969" style="stroke:#000000;stroke-width:1.5;" width="638" x="387.5" y="190.6953"/><text fill="#000000" font-family="sans-serif" font-size="13" font-weight="bold" lengthAdjust="spacing" textLength="21" x="402.5" y="203.7622">alt</text><text fill="#000000" font-family="sans-serif" font-size="11" font-weight="bold" lengthAdjust="spacing" textLength="237" x="468.5" y="202.9058">[Access Token is empty or expired.]</text><polygon fill="#181818" points="714.5,224.9609,724.5,228.9609,714.5,232.9609,718.5,228.9609" style="stroke:#181818;stroke-width:1.0;"/><line style="stroke:#181818;stroke-width:1.0;" x1="468" x2="720.5" y1="228.9609" y2="228.9609"/><text fill="#000000" font-family="sans-serif" font-size="13" lengthAdjust="spacing" textLength="76" x="475" y="223.895">Get Bot info</text><polygon fill="#181818" points="479,238.9609,469,242.9609,479,246.9609,475,242.9609" style="stroke:#181818;stroke-width:1.0;"/><line style="stroke:#181818;stroke-width:1.0;stroke-dasharray:2.0,2.0;" x1="473" x2="730.5" y1="242.9609" y2="242.9609"/><polygon fill="#181818" points="820.5,268.0938,830.5,272.0938,820.5,276.0938,824.5,272.0938" style="stroke:#181818;stroke-width:1.0;"/><line style="stroke:#181818;stroke-width:1.0;" x1="468" x2="826.5" y1="272.0938" y2="272.0938"/><text fill="#000000" font-family="sans-serif" font-size="13" lengthAdjust="spacing" textLength="135" x="475" y="267.0278">Get client credentials</text><polygon fill="#181818" points="479,282.0938,469,286.0938,479,290.0938,475,286.0938" style="stroke:#181818;stroke-width:1.0;"/><line style="stroke:#181818;stroke-width:1.0;stroke-dasharray:2.0,2.0;" x1="473" x2="836.5" y1="286.0938" y2="286.0938"/><polygon fill="#181818" points="622,311.2266,632,315.2266,622,319.2266,626,315.2266" style="stroke:#181818;stroke-width:1.0;"/><line style="stroke:#181818;stroke-width:1.0;" x1="468" x2="628" y1="315.2266" y2="315.2266"/><text fill="#000000" font-family="sans-serif" font-size="13" lengthAdjust="spacing" textLength="136" x="475" y="310.1606">Get installed app info</text><polygon fill="#181818" points="479,325.2266,469,329.2266,479,333.2266,475,329.2266" style="stroke:#181818;stroke-width:1.0;"/><line style="stroke:#181818;stroke-width:1.0;stroke-dasharray:2.0,2.0;" x1="473" x2="638" y1="329.2266" y2="329.2266"/><line style="stroke:#181818;stroke-width:1.0;" x1="468" x2="515" y1="353.3594" y2="353.3594"/><line style="stroke:#181818;stroke-width:1.0;" x1="515" x2="515" y1="353.3594" y2="366.3594"/><line style="stroke:#181818;stroke-width:1.0;" x1="474" x2="515" y1="366.3594" y2="366.3594"/><polygon fill="#181818" points="484,362.3594,474,366.3594,484,370.3594,480,366.3594" style="stroke:#181818;stroke-width:1.0;"/><text fill="#000000" font-family="sans-serif" font-size="13" lengthAdjust="spacing" textLength="152" x="480" y="348.2935">Generate Access Token</text><polygon fill="#181818" points="946.5,396.4922,956.5,400.4922,946.5,404.4922,950.5,400.4922" style="stroke:#181818;stroke-width:1.0;"/><line style="stroke:#181818;stroke-width:1.0;" x1="473" x2="952.5" y1="400.4922" y2="400.4922"/><text fill="#000000" font-family="sans-serif" font-size="13" lengthAdjust="spacing" textLength="113" x="480" y="395.4263">Put Access Token</text><polygon fill="#181818" points="479,410.4922,469,414.4922,479,418.4922,475,414.4922" style="stroke:#181818;stroke-width:1.0;"/><line style="stroke:#181818;stroke-width:1.0;stroke-dasharray:2.0,2.0;" x1="473" x2="962.5" y1="414.4922" y2="414.4922"/><polygon fill="#181818" points="267.5,446.625,257.5,450.625,267.5,454.625,263.5,450.625" style="stroke:#181818;stroke-width:1.0;"/><line style="stroke:#181818;stroke-width:1.0;stroke-dasharray:2.0,2.0;" x1="261.5" x2="462" y1="450.625" y2="450.625"/><text fill="#000000" font-family="sans-serif" font-size="13" lengthAdjust="spacing" textLength="152" x="273.5" y="445.5591">Send greeting message</text><polygon fill="#181818" points="49,460.625,39,464.625,49,468.625,45,464.625" style="stroke:#181818;stroke-width:1.0;"/><line style="stroke:#181818;stroke-width:1.0;stroke-dasharray:2.0,2.0;" x1="43" x2="250.5" y1="464.625" y2="464.625"/><!--SRC=[ZPFBRi8m44Nt_eeHhEa7P844eKAeJvLAh9racbWajcKFZ_vznt60D814Dh77CzVZSssv8oDpKdj924OBmHFZOFI6JOPk1D9370gHcIEyhjwVOVFnzRA6SQtAYag7g0NmPwKZbIihDS7eMzRRjZWCO7oe5A50NG2BHAKDPcjqUnQ-AfuRcbcRohhEP1vbE3kj96M6Oj5DoOKawRbxR2KBdcNI8unMsXEBOG4isyejvkSOXmRfl3siz8_fCdaQPeEaj5R8lQOE2_uhMNVPCHx2Wu9PdgDd7cQBkikDeJPoEKYaFPa6S4dG3yPGeEYCQU2WgE944c5zCXroITWjxsM9W7lkGmpN9zF_spgadGkkrmJz3a5vmCRIB_1bmADLVA2dzaIt53j42IoH8E1J9s2T_ht22wrOcqUg-PcgVqIbxsNKKMV7fRKFTdEDSeaQNS3V9tEtYnxM13vtT5tLsxx0qwCBpdSsm3hSWl2YIEaIckXaj_W7]--></g></svg>