<?xml version="1.0" encoding="us-ascii" standalone="no"?><svg xmlns="http://www.w3.org/2000/svg" xmlns:xlink="http://www.w3.org/1999/xlink" contentStyleType="text/css" height="796px" preserveAspectRatio="none" style="width:788px;height:796px;background:#FFFFFF;" version="1.1" viewBox="0 0 788 796" width="788px" zoomAndPan="magnify"><defs/><g><rect fill="#90EE90" height="784.5859" style="stroke:#181818;stroke-width:0.5;" width="129" x="124.5" y="6"/><text fill="#000000" font-family="sans-serif" font-size="13" font-weight="bold" lengthAdjust="spacing" textLength="92" x="140.5" y="18.0669">LINE WORKS</text><rect fill="#DDDDDD" height="784.5859" style="stroke:#181818;stroke-width:0.5;" width="139" x="290.5" y="6"/><text fill="#000000" font-family="sans-serif" font-size="13" font-weight="bold" lengthAdjust="spacing" textLength="81" x="319.5" y="18.0669">WebServer</text><rect fill="#DDDDDD" height="784.5859" style="stroke:#181818;stroke-width:0.5;" width="324" x="456.5" y="6"/><text fill="#000000" font-family="sans-serif" font-size="13" font-weight="bold" lengthAdjust="spacing" textLength="79" x="579" y="18.0669">Datastore</text><rect fill="#FFFFFF" height="100.2656" style="stroke:#181818;stroke-width:1.0;" width="10" x="184" y="161.6953"/><rect fill="#FFFFFF" height="100.2656" style="stroke:#181818;stroke-width:1.0;" width="10" x="184" y="334.2266"/><rect fill="#FFFFFF" height="186.5313" style="stroke:#181818;stroke-width:1.0;" width="10" x="184" y="506.7578"/><rect fill="#FFFFFF" height="57.1328" style="stroke:#181818;stroke-width:1.0;" width="10" x="355" y="190.8281"/><rect fill="#FFFFFF" height="57.1328" style="stroke:#181818;stroke-width:1.0;" width="10" x="355" y="363.3594"/><rect fill="#FFFFFF" height="143.3984" style="stroke:#181818;stroke-width:1.0;" width="10" x="355" y="535.8906"/><rect fill="#FFFFFF" height="14" style="stroke:#181818;stroke-width:1.0;" width="10" x="506" y="219.9609"/><rect fill="#FFFFFF" height="14" style="stroke:#181818;stroke-width:1.0;" width="10" x="506" y="392.4922"/><rect fill="#FFFFFF" height="14" style="stroke:#181818;stroke-width:1.0;" width="10" x="506" y="565.0234"/><rect fill="#FFFFFF" height="14" style="stroke:#181818;stroke-width:1.0;" width="10" x="618.5" y="608.1563"/><rect fill="#FFFFFF" height="14" style="stroke:#181818;stroke-width:1.0;" width="10" x="726" y="651.2891"/><line style="stroke:#181818;stroke-width:0.5;stroke-dasharray:5.0,5.0;" x1="48" x2="48" y1="87.4297" y2="711.2891"/><line style="stroke:#181818;stroke-width:0.5;stroke-dasharray:5.0,5.0;" x1="188.5" x2="188.5" y1="87.4297" y2="711.2891"/><line style="stroke:#181818;stroke-width:0.5;stroke-dasharray:5.0,5.0;" x1="359.5" x2="359.5" y1="87.4297" y2="711.2891"/><line style="stroke:#181818;stroke-width:0.5;stroke-dasharray:5.0,5.0;" x1="510.5" x2="510.5" y1="87.4297" y2="711.2891"/><line style="stroke:#181818;stroke-width:0.5;stroke-dasharray:5.0,5.0;" x1="623.5" x2="623.5" y1="87.4297" y2="711.2891"/><line style="stroke:#181818;stroke-width:0.5;stroke-dasharray:5.0,5.0;" x1="730.5" x2="730.5" y1="87.4297" y2="711.2891"/><text fill="#000000" font-family="sans-serif" font-size="14" lengthAdjust="spacing" textLength="80" x="5" y="84.1279">Admin user</text><ellipse cx="48" cy="19.6328" fill="#E2E2F0" rx="8" ry="8" style="stroke:#181818;stroke-width:0.5;"/><path d="M48,27.6328 L48,54.6328 M35,35.6328 L61,35.6328 M48,54.6328 L35,69.6328 M48,54.6328 L61,69.6328 " fill="none" style="stroke:#181818;stroke-width:0.5;"/><text fill="#000000" font-family="sans-serif" font-size="14" lengthAdjust="spacing" textLength="80" x="5" y="723.2842">Admin user</text><ellipse cx="48" cy="735.0859" fill="#E2E2F0" rx="8" ry="8" style="stroke:#181818;stroke-width:0.5;"/><path d="M48,743.0859 L48,770.0859 M35,751.0859 L61,751.0859 M48,770.0859 L35,785.0859 M48,770.0859 L61,785.0859 " fill="none" style="stroke:#181818;stroke-width:0.5;"/><rect fill="#FFFFFF" height="46.5938" rx="2.5" ry="2.5" style="stroke:#181818;stroke-width:0.5;" width="121" x="128.5" y="39.8359"/><text fill="#000000" font-family="sans-serif" font-size="14" lengthAdjust="spacing" textLength="107" x="135.5" y="59.8311">Admin Console</text><text fill="#000000" font-family="sans-serif" font-size="14" lengthAdjust="spacing" textLength="102" x="138" y="76.1279">App Directory</text><rect fill="#FFFFFF" height="46.5938" rx="2.5" ry="2.5" style="stroke:#181818;stroke-width:0.5;" width="121" x="128.5" y="710.2891"/><text fill="#000000" font-family="sans-serif" font-size="14" lengthAdjust="spacing" textLength="107" x="135.5" y="730.2842">Admin Console</text><text fill="#000000" font-family="sans-serif" font-size="14" lengthAdjust="spacing" textLength="102" x="138" y="746.5811">App Directory</text><rect fill="#FFFFFF" height="30.2969" rx="2.5" ry="2.5" style="stroke:#181818;stroke-width:0.5;" width="131" x="294.5" y="56.1328"/><text fill="#000000" font-family="sans-serif" font-size="14" lengthAdjust="spacing" textLength="117" x="301.5" y="76.1279">BotAppCallback</text><rect fill="#FFFFFF" height="30.2969" rx="2.5" ry="2.5" style="stroke:#181818;stroke-width:0.5;" width="131" x="294.5" y="710.2891"/><text fill="#000000" font-family="sans-serif" font-size="14" lengthAdjust="spacing" textLength="117" x="301.5" y="730.2842">BotAppCallback</text><text fill="#000000" font-family="sans-serif" font-size="14" lengthAdjust="spacing" textLength="95" x="460.5" y="84.1279">Installed App</text><path d="M493,35.1328 C493,25.1328 511,25.1328 511,25.1328 C511,25.1328 529,25.1328 529,35.1328 L529,61.1328 C529,71.1328 511,71.1328 511,71.1328 C511,71.1328 493,71.1328 493,61.1328 L493,35.1328 " fill="#E2E2F0" style="stroke:#181818;stroke-width:1.5;"/><path d="M493,35.1328 C493,45.1328 511,45.1328 511,45.1328 C511,45.1328 529,45.1328 529,35.1328 " fill="none" style="stroke:#181818;stroke-width:1.5;"/><text fill="#000000" font-family="sans-serif" font-size="14" lengthAdjust="spacing" textLength="95" x="460.5" y="723.2842">Installed App</text><path d="M493,736.5859 C493,726.5859 511,726.5859 511,726.5859 C511,726.5859 529,726.5859 529,736.5859 L529,762.5859 C529,772.5859 511,772.5859 511,772.5859 C511,772.5859 493,772.5859 493,762.5859 L493,736.5859 " fill="#E2E2F0" style="stroke:#181818;stroke-width:1.5;"/><path d="M493,736.5859 C493,746.5859 511,746.5859 511,746.5859 C511,746.5859 529,746.5859 529,736.5859 " fill="none" style="stroke:#181818;stroke-width:1.5;"/><text fill="#000000" font-family="sans-serif" font-size="14" lengthAdjust="spacing" textLength="98" x="571.5" y="84.1279">Access Token</text><path d="M605.5,35.1328 C605.5,25.1328 623.5,25.1328 623.5,25.1328 C623.5,25.1328 641.5,25.1328 641.5,35.1328 L641.5,61.1328 C641.5,71.1328 623.5,71.1328 623.5,71.1328 C623.5,71.1328 605.5,71.1328 605.5,61.1328 L605.5,35.1328 " fill="#E2E2F0" style="stroke:#181818;stroke-width:1.5;"/><path d="M605.5,35.1328 C605.5,45.1328 623.5,45.1328 623.5,45.1328 C623.5,45.1328 641.5,45.1328 641.5,35.1328 " fill="none" style="stroke:#181818;stroke-width:1.5;"/><text fill="#000000" font-family="sans-serif" font-size="14" lengthAdjust="spacing" textLength="98" x="571.5" y="723.2842">Access Token</text><path d="M605.5,736.5859 C605.5,726.5859 623.5,726.5859 623.5,726.5859 C623.5,726.5859 641.5,726.5859 641.5,736.5859 L641.5,762.5859 C641.5,772.5859 623.5,772.5859 623.5,772.5859 C623.5,772.5859 605.5,772.5859 605.5,762.5859 L605.5,736.5859 " fill="#E2E2F0" style="stroke:#181818;stroke-width:1.5;"/><path d="M605.5,736.5859 C605.5,746.5859 623.5,746.5859 623.5,746.5859 C623.5,746.5859 641.5,746.5859 641.5,736.5859 " fill="none" style="stroke:#181818;stroke-width:1.5;"/><text fill="#000000" font-family="sans-serif" font-size="14" lengthAdjust="spacing" textLength="85" x="685.5" y="84.1279">UserSetting</text><path d="M713,35.1328 C713,25.1328 731,25.1328 731,25.1328 C731,25.1328 749,25.1328 749,35.1328 L749,61.1328 C749,71.1328 731,71.1328 731,71.1328 C731,71.1328 713,71.1328 713,61.1328 L713,35.1328 " fill="#E2E2F0" style="stroke:#181818;stroke-width:1.5;"/><path d="M713,35.1328 C713,45.1328 731,45.1328 731,45.1328 C731,45.1328 749,45.1328 749,35.1328 " fill="none" style="stroke:#181818;stroke-width:1.5;"/><text fill="#000000" font-family="sans-serif" font-size="14" lengthAdjust="spacing" textLength="85" x="685.5" y="723.2842">UserSetting</text><path d="M713,736.5859 C713,726.5859 731,726.5859 731,726.5859 C731,726.5859 749,726.5859 749,736.5859 L749,762.5859 C749,772.5859 731,772.5859 731,772.5859 C731,772.5859 713,772.5859 713,762.5859 L713,736.5859 " fill="#E2E2F0" style="stroke:#181818;stroke-width:1.5;"/><path d="M713,736.5859 C713,746.5859 731,746.5859 731,746.5859 C731,746.5859 749,746.5859 749,736.5859 " fill="none" style="stroke:#181818;stroke-width:1.5;"/><rect fill="#FFFFFF" height="100.2656" style="stroke:#181818;stroke-width:1.0;" width="10" x="184" y="161.6953"/><rect fill="#FFFFFF" height="100.2656" style="stroke:#181818;stroke-width:1.0;" width="10" x="184" y="334.2266"/><rect fill="#FFFFFF" height="186.5313" style="stroke:#181818;stroke-width:1.0;" width="10" x="184" y="506.7578"/><rect fill="#FFFFFF" height="57.1328" style="stroke:#181818;stroke-width:1.0;" width="10" x="355" y="190.8281"/><rect fill="#FFFFFF" height="57.1328" style="stroke:#181818;stroke-width:1.0;" width="10" x="355" y="363.3594"/><rect fill="#FFFFFF" height="143.3984" style="stroke:#181818;stroke-width:1.0;" width="10" x="355" y="535.8906"/><rect fill="#FFFFFF" height="14" style="stroke:#181818;stroke-width:1.0;" width="10" x="506" y="219.9609"/><rect fill="#FFFFFF" height="14" style="stroke:#181818;stroke-width:1.0;" width="10" x="506" y="392.4922"/><rect fill="#FFFFFF" height="14" style="stroke:#181818;stroke-width:1.0;" width="10" x="506" y="565.0234"/><rect fill="#FFFFFF" height="14" style="stroke:#181818;stroke-width:1.0;" width="10" x="618.5" y="608.1563"/><rect fill="#FFFFFF" height="14" style="stroke:#181818;stroke-width:1.0;" width="10" x="726" y="651.2891"/><rect fill="#EEEEEE" height="3" style="stroke:#EEEEEE;stroke-width:1.0;" width="781.5" x="0" y="117.9961"/><line style="stroke:#000000;stroke-width:1.0;" x1="0" x2="781.5" y1="117.9961" y2="117.9961"/><line style="stroke:#000000;stroke-width:1.0;" x1="0" x2="781.5" y1="120.9961" y2="120.9961"/><rect fill="#EEEEEE" height="23.1328" style="stroke:#000000;stroke-width:2.0;" width="98" x="341.75" y="107.4297"/><text fill="#000000" font-family="sans-serif" font-size="13" font-weight="bold" lengthAdjust="spacing" textLength="79" x="347.75" y="123.4966">Install app</text><polygon fill="#181818" points="172,157.6953,182,161.6953,172,165.6953,176,161.6953" style="stroke:#181818;stroke-width:1.0;"/><line style="stroke:#181818;stroke-width:1.0;" x1="48" x2="178" y1="161.6953" y2="161.6953"/><text fill="#000000" font-family="sans-serif" font-size="13" lengthAdjust="spacing" textLength="117" x="55" y="156.6294">Add App to tenant</text><polygon fill="#181818" points="343,186.8281,353,190.8281,343,194.8281,347,190.8281" style="stroke:#181818;stroke-width:1.0;"/><line style="stroke:#181818;stroke-width:1.0;" x1="194" x2="349" y1="190.8281" y2="190.8281"/><text fill="#000000" font-family="sans-serif" font-size="13" lengthAdjust="spacing" textLength="133" x="201" y="185.7622">Install callback event</text><polygon fill="#181818" points="494,215.9609,504,219.9609,494,223.9609,498,219.9609" style="stroke:#181818;stroke-width:1.0;"/><line style="stroke:#181818;stroke-width:1.0;" x1="365" x2="500" y1="219.9609" y2="219.9609"/><text fill="#000000" font-family="sans-serif" font-size="13" lengthAdjust="spacing" textLength="101" x="372" y="214.895">Put domain info</text><polygon fill="#181818" points="376,229.9609,366,233.9609,376,237.9609,372,233.9609" style="stroke:#181818;stroke-width:1.0;"/><line style="stroke:#181818;stroke-width:1.0;stroke-dasharray:2.0,2.0;" x1="370" x2="510" y1="233.9609" y2="233.9609"/><polygon fill="#181818" points="205,243.9609,195,247.9609,205,251.9609,201,247.9609" style="stroke:#181818;stroke-width:1.0;"/><line style="stroke:#181818;stroke-width:1.0;stroke-dasharray:2.0,2.0;" x1="199" x2="359" y1="247.9609" y2="247.9609"/><polygon fill="#181818" points="59,257.9609,49,261.9609,59,265.9609,55,261.9609" style="stroke:#181818;stroke-width:1.0;"/><line style="stroke:#181818;stroke-width:1.0;stroke-dasharray:2.0,2.0;" x1="53" x2="188" y1="261.9609" y2="261.9609"/><rect fill="#EEEEEE" height="3" style="stroke:#EEEEEE;stroke-width:1.0;" width="781.5" x="0" y="290.5273"/><line style="stroke:#000000;stroke-width:1.0;" x1="0" x2="781.5" y1="290.5273" y2="290.5273"/><line style="stroke:#000000;stroke-width:1.0;" x1="0" x2="781.5" y1="293.5273" y2="293.5273"/><rect fill="#EEEEEE" height="23.1328" style="stroke:#000000;stroke-width:2.0;" width="105" x="338.25" y="279.9609"/><text fill="#000000" font-family="sans-serif" font-size="13" font-weight="bold" lengthAdjust="spacing" textLength="86" x="344.25" y="296.0278">Update app</text><polygon fill="#181818" points="172,330.2266,182,334.2266,172,338.2266,176,334.2266" style="stroke:#181818;stroke-width:1.0;"/><line style="stroke:#181818;stroke-width:1.0;" x1="48" x2="178" y1="334.2266" y2="334.2266"/><text fill="#000000" font-family="sans-serif" font-size="13" lengthAdjust="spacing" textLength="75" x="55" y="329.1606">Update App</text><polygon fill="#181818" points="343,359.3594,353,363.3594,343,367.3594,347,363.3594" style="stroke:#181818;stroke-width:1.0;"/><line style="stroke:#181818;stroke-width:1.0;" x1="194" x2="349" y1="363.3594" y2="363.3594"/><text fill="#000000" font-family="sans-serif" font-size="13" lengthAdjust="spacing" textLength="142" x="201" y="358.2935">Update callback event</text><polygon fill="#181818" points="494,388.4922,504,392.4922,494,396.4922,498,392.4922" style="stroke:#181818;stroke-width:1.0;"/><line style="stroke:#181818;stroke-width:1.0;" x1="365" x2="500" y1="392.4922" y2="392.4922"/><text fill="#000000" font-family="sans-serif" font-size="13" lengthAdjust="spacing" textLength="101" x="372" y="387.4263">Put domain info</text><polygon fill="#181818" points="376,402.4922,366,406.4922,376,410.4922,372,406.4922" style="stroke:#181818;stroke-width:1.0;"/><line style="stroke:#181818;stroke-width:1.0;stroke-dasharray:2.0,2.0;" x1="370" x2="510" y1="406.4922" y2="406.4922"/><polygon fill="#181818" points="205,416.4922,195,420.4922,205,424.4922,201,420.4922" style="stroke:#181818;stroke-width:1.0;"/><line style="stroke:#181818;stroke-width:1.0;stroke-dasharray:2.0,2.0;" x1="199" x2="359" y1="420.4922" y2="420.4922"/><polygon fill="#181818" points="59,430.4922,49,434.4922,59,438.4922,55,434.4922" style="stroke:#181818;stroke-width:1.0;"/><line style="stroke:#181818;stroke-width:1.0;stroke-dasharray:2.0,2.0;" x1="53" x2="188" y1="434.4922" y2="434.4922"/><rect fill="#EEEEEE" height="3" style="stroke:#EEEEEE;stroke-width:1.0;" width="781.5" x="0" y="463.0586"/><line style="stroke:#000000;stroke-width:1.0;" x1="0" x2="781.5" y1="463.0586" y2="463.0586"/><line style="stroke:#000000;stroke-width:1.0;" x1="0" x2="781.5" y1="466.0586" y2="466.0586"/><rect fill="#EEEEEE" height="23.1328" style="stroke:#000000;stroke-width:2.0;" width="101" x="340.25" y="452.4922"/><text fill="#000000" font-family="sans-serif" font-size="13" font-weight="bold" lengthAdjust="spacing" textLength="82" x="346.25" y="468.5591">Delete app</text><polygon fill="#181818" points="172,502.7578,182,506.7578,172,510.7578,176,506.7578" style="stroke:#181818;stroke-width:1.0;"/><line style="stroke:#181818;stroke-width:1.0;" x1="48" x2="178" y1="506.7578" y2="506.7578"/><text fill="#000000" font-family="sans-serif" font-size="13" lengthAdjust="spacing" textLength="71" x="55" y="501.6919">Delete App</text><polygon fill="#181818" points="343,531.8906,353,535.8906,343,539.8906,347,535.8906" style="stroke:#181818;stroke-width:1.0;"/><line style="stroke:#181818;stroke-width:1.0;" x1="194" x2="349" y1="535.8906" y2="535.8906"/><text fill="#000000" font-family="sans-serif" font-size="13" lengthAdjust="spacing" textLength="138" x="201" y="530.8247">Delete callback event</text><polygon fill="#181818" points="494,561.0234,504,565.0234,494,569.0234,498,565.0234" style="stroke:#181818;stroke-width:1.0;"/><line style="stroke:#181818;stroke-width:1.0;" x1="365" x2="500" y1="565.0234" y2="565.0234"/><text fill="#000000" font-family="sans-serif" font-size="13" lengthAdjust="spacing" textLength="122" x="372" y="559.9575">Delete domain info</text><polygon fill="#181818" points="376,575.0234,366,579.0234,376,583.0234,372,579.0234" style="stroke:#181818;stroke-width:1.0;"/><line style="stroke:#181818;stroke-width:1.0;stroke-dasharray:2.0,2.0;" x1="370" x2="510" y1="579.0234" y2="579.0234"/><polygon fill="#181818" points="606.5,604.1563,616.5,608.1563,606.5,612.1563,610.5,608.1563" style="stroke:#181818;stroke-width:1.0;"/><line style="stroke:#181818;stroke-width:1.0;" x1="365" x2="612.5" y1="608.1563" y2="608.1563"/><text fill="#000000" font-family="sans-serif" font-size="13" lengthAdjust="spacing" textLength="134" x="372" y="603.0903">Delete Access Token</text><polygon fill="#181818" points="376,618.1563,366,622.1563,376,626.1563,372,622.1563" style="stroke:#181818;stroke-width:1.0;"/><line style="stroke:#181818;stroke-width:1.0;stroke-dasharray:2.0,2.0;" x1="370" x2="622.5" y1="622.1563" y2="622.1563"/><polygon fill="#181818" points="714,647.2891,724,651.2891,714,655.2891,718,651.2891" style="stroke:#181818;stroke-width:1.0;"/><line style="stroke:#181818;stroke-width:1.0;" x1="365" x2="720" y1="651.2891" y2="651.2891"/><text fill="#000000" font-family="sans-serif" font-size="13" lengthAdjust="spacing" textLength="239" x="372" y="646.2231">Delete all user settings in the domain</text><polygon fill="#181818" points="376,661.2891,366,665.2891,376,669.2891,372,665.2891" style="stroke:#181818;stroke-width:1.0;"/><line style="stroke:#181818;stroke-width:1.0;stroke-dasharray:2.0,2.0;" x1="370" x2="730" y1="665.2891" y2="665.2891"/><polygon fill="#181818" points="205,675.2891,195,679.2891,205,683.2891,201,679.2891" style="stroke:#181818;stroke-width:1.0;"/><line style="stroke:#181818;stroke-width:1.0;stroke-dasharray:2.0,2.0;" x1="199" x2="359" y1="679.2891" y2="679.2891"/><polygon fill="#181818" points="59,689.2891,49,693.2891,59,697.2891,55,693.2891" style="stroke:#181818;stroke-width:1.0;"/><line style="stroke:#181818;stroke-width:1.0;stroke-dasharray:2.0,2.0;" x1="53" x2="188" y1="693.2891" y2="693.2891"/><!--SRC=[jLD1Ri8m4Bpx5Iiuym6aH0B20RLggrB4fHSdsO95i2DxGzlVTvsOaAPHeOVc4krwPdOysSYAZCn8dIGX62q45yR2Q9OVbORAeHs1T52N6ww4ICq7tAyUbh1zVBvRmxXGkptjBA8Mm4yfBQbCbLBJMMLXj3C5lkfPMKAYBFeHdnVTS0xZzxqY5AXpu27Df2scQxGd7ln3V6w81HUoA5AP7MevHYypmzs6CwYOI9AE3M2jc7ELIeSmMcb7h8KvCBzMI-PjZriz-2pBq3buCGVK0TsqwauFx9DR8v7Iku3jT2xseWZ2H90SLHI9DlT9t8rgoi7LFe4C46hEGtJF9t4lYMahd8My04_8h1vk4d-_z1IUAeBS72L_HwNVZB18bTMzbtU-ANE_GzUC1vWFz8hZWFmtmmaMU8FX0Bl1S43-rN2W3NWUe7Psx6Ajiug_K3ihrrBzHlYV75npu7W-qFxiPZ2yBm00]--></g></svg>