<?xml version="1.0" encoding="us-ascii" standalone="no"?><svg xmlns="http://www.w3.org/2000/svg" xmlns:xlink="http://www.w3.org/1999/xlink" contentStyleType="text/css" height="1376px" preserveAspectRatio="none" style="width:1611px;height:1376px;background:#FFFFFF;" version="1.1" viewBox="0 0 1611 1376" width="1611px" zoomAndPan="magnify"><defs/><g><rect fill="#90EE90" height="1364.5781" style="stroke:#181818;stroke-width:0.5;" width="210.5" x="77" y="6"/><text fill="#000000" font-family="sans-serif" font-size="13" font-weight="bold" lengthAdjust="spacing" textLength="92" x="133.75" y="18.0669">LINE WORKS</text><rect fill="#DDDDDD" height="1364.5781" style="stroke:#181818;stroke-width:0.5;" width="134" x="334" y="6"/><text fill="#000000" font-family="sans-serif" font-size="13" font-weight="bold" lengthAdjust="spacing" textLength="81" x="360.5" y="18.0669">WebServer</text><rect fill="#DDDDDD" height="1364.5781" style="stroke:#181818;stroke-width:0.5;" width="305" x="470" y="6"/><text fill="#000000" font-family="sans-serif" font-size="13" font-weight="bold" lengthAdjust="spacing" textLength="93" x="576" y="18.0669">BatchServer</text><rect fill="#DDDDDD" height="1364.5781" style="stroke:#181818;stroke-width:0.5;" width="596" x="850" y="6"/><text fill="#000000" font-family="sans-serif" font-size="13" font-weight="bold" lengthAdjust="spacing" textLength="79" x="1108.5" y="18.0669">Datastore</text><rect fill="#FFFFFF" height="14" style="stroke:#181818;stroke-width:1.0;" width="10" x="98" y="1252.2813"/><rect fill="#FFFFFF" height="115.3984" style="stroke:#181818;stroke-width:1.0;" width="10" x="234" y="333.2266"/><rect fill="#FFFFFF" height="115.3984" style="stroke:#181818;stroke-width:1.0;" width="10" x="234" y="477.7578"/><rect fill="#FFFFFF" height="57.1328" style="stroke:#181818;stroke-width:1.0;" width="10" x="396" y="362.3594"/><rect fill="#FFFFFF" height="57.1328" style="stroke:#181818;stroke-width:1.0;" width="10" x="396" y="506.8906"/><rect fill="#FFFFFF" height="607.8594" style="stroke:#181818;stroke-width:1.0;" width="10" x="516" y="673.4219"/><rect fill="#FFFFFF" height="159.3984" style="stroke:#181818;stroke-width:1.0;" width="10" x="521" y="758.6875"/><rect fill="#FFFFFF" height="28" style="stroke:#181818;stroke-width:1.0;" width="10" x="526" y="868.0859"/><rect fill="#FFFFFF" height="48.1328" style="stroke:#181818;stroke-width:1.0;" width="10" x="521" y="1168.0156"/><rect fill="#FFFFFF" height="91.2656" style="stroke:#181818;stroke-width:1.0;" width="10" x="695" y="169.6953"/><rect fill="#FFFFFF" height="14" style="stroke:#181818;stroke-width:1.0;" width="10" x="874" y="246.9609"/><rect fill="#FFFFFF" height="14" style="stroke:#181818;stroke-width:1.0;" width="10" x="874" y="816.9531"/><rect fill="#FFFFFF" height="14" style="stroke:#181818;stroke-width:1.0;" width="10" x="954.5" y="391.4922"/><rect fill="#FFFFFF" height="14" style="stroke:#181818;stroke-width:1.0;" width="10" x="954.5" y="536.0234"/><rect fill="#FFFFFF" height="14" style="stroke:#181818;stroke-width:1.0;" width="10" x="954.5" y="707.5547"/><rect fill="#FFFFFF" height="14" style="stroke:#181818;stroke-width:1.0;" width="10" x="1060.5" y="1116.8828"/><rect fill="#FFFFFF" height="14" style="stroke:#181818;stroke-width:1.0;" width="10" x="1153" y="1030.6172"/><rect fill="#FFFFFF" height="14" style="stroke:#181818;stroke-width:1.0;" width="10" x="1259" y="1073.75"/><rect fill="#FFFFFF" height="14" style="stroke:#181818;stroke-width:1.0;" width="10" x="1385" y="963.3516"/><rect fill="#FFFFFF" height="14" style="stroke:#181818;stroke-width:1.0;" width="10" x="1385" y="1202.1484"/><rect fill="#FFFFFF" height="14" style="stroke:#181818;stroke-width:1.0;" width="10" x="1520.5" y="203.8281"/><rect fill="none" height="132.3984" style="stroke:#000000;stroke-width:1.5;" width="450" x="464" y="778.6875"/><rect fill="none" height="349.1953" style="stroke:#000000;stroke-width:1.5;" width="1391" x="71" y="925.0859"/><rect fill="none" height="231.7969" style="stroke:#000000;stroke-width:1.5;" width="988" x="464" y="992.3516"/><line style="stroke:#181818;stroke-width:0.5;stroke-dasharray:5.0,5.0;" x1="38" x2="38" y1="87.4297" y2="1291.2813"/><line style="stroke:#181818;stroke-width:0.5;stroke-dasharray:5.0,5.0;" x1="103" x2="103" y1="87.4297" y2="1291.2813"/><line style="stroke:#181818;stroke-width:0.5;stroke-dasharray:5.0,5.0;" x1="238.5" x2="238.5" y1="87.4297" y2="1291.2813"/><line style="stroke:#181818;stroke-width:0.5;stroke-dasharray:5.0,5.0;" x1="401" x2="401" y1="87.4297" y2="1291.2813"/><line style="stroke:#181818;stroke-width:0.5;stroke-dasharray:5.0,5.0;" x1="521" x2="521" y1="87.4297" y2="1291.2813"/><line style="stroke:#181818;stroke-width:0.5;stroke-dasharray:5.0,5.0;" x1="700" x2="700" y1="87.4297" y2="1291.2813"/><line style="stroke:#181818;stroke-width:0.5;stroke-dasharray:5.0,5.0;" x1="879" x2="879" y1="87.4297" y2="1291.2813"/><line style="stroke:#181818;stroke-width:0.5;stroke-dasharray:5.0,5.0;" x1="959" x2="959" y1="87.4297" y2="1291.2813"/><line style="stroke:#181818;stroke-width:0.5;stroke-dasharray:5.0,5.0;" x1="1065" x2="1065" y1="87.4297" y2="1291.2813"/><line style="stroke:#181818;stroke-width:0.5;stroke-dasharray:5.0,5.0;" x1="1158" x2="1158" y1="87.4297" y2="1291.2813"/><line style="stroke:#181818;stroke-width:0.5;stroke-dasharray:5.0,5.0;" x1="1264" x2="1264" y1="87.4297" y2="1291.2813"/><line style="stroke:#181818;stroke-width:0.5;stroke-dasharray:5.0,5.0;" x1="1390" x2="1390" y1="87.4297" y2="1291.2813"/><line style="stroke:#181818;stroke-width:0.5;stroke-dasharray:5.0,5.0;" x1="1525" x2="1525" y1="87.4297" y2="1291.2813"/><text fill="#000000" font-family="sans-serif" font-size="14" lengthAdjust="spacing" textLength="60" x="5" y="84.1279">Member</text><ellipse cx="38" cy="19.6328" fill="#E2E2F0" rx="8" ry="8" style="stroke:#181818;stroke-width:0.5;"/><path d="M38,27.6328 L38,54.6328 M25,35.6328 L51,35.6328 M38,54.6328 L25,69.6328 M38,54.6328 L51,69.6328 " fill="none" style="stroke:#181818;stroke-width:0.5;"/><text fill="#000000" font-family="sans-serif" font-size="14" lengthAdjust="spacing" textLength="60" x="5" y="1303.2764">Member</text><ellipse cx="38" cy="1315.0781" fill="#E2E2F0" rx="8" ry="8" style="stroke:#181818;stroke-width:0.5;"/><path d="M38,1323.0781 L38,1350.0781 M25,1331.0781 L51,1331.0781 M38,1350.0781 L25,1365.0781 M38,1350.0781 L51,1365.0781 " fill="none" style="stroke:#181818;stroke-width:0.5;"/><rect fill="#FFFFFF" height="30.2969" rx="2.5" ry="2.5" style="stroke:#181818;stroke-width:0.5;" width="44" x="81" y="56.1328"/><text fill="#000000" font-family="sans-serif" font-size="14" lengthAdjust="spacing" textLength="30" x="88" y="76.1279">Talk</text><rect fill="#FFFFFF" height="30.2969" rx="2.5" ry="2.5" style="stroke:#181818;stroke-width:0.5;" width="44" x="81" y="1290.2813"/><text fill="#000000" font-family="sans-serif" font-size="14" lengthAdjust="spacing" textLength="30" x="88" y="1310.2764">Talk</text><rect fill="#FFFFFF" height="30.2969" rx="2.5" ry="2.5" style="stroke:#181818;stroke-width:0.5;" width="89" x="194.5" y="56.1328"/><text fill="#000000" font-family="sans-serif" font-size="14" lengthAdjust="spacing" textLength="75" x="201.5" y="76.1279">WOFF App</text><rect fill="#FFFFFF" height="30.2969" rx="2.5" ry="2.5" style="stroke:#181818;stroke-width:0.5;" width="89" x="194.5" y="1290.2813"/><text fill="#000000" font-family="sans-serif" font-size="14" lengthAdjust="spacing" textLength="75" x="201.5" y="1310.2764">WOFF App</text><rect fill="#FFFFFF" height="30.2969" rx="2.5" ry="2.5" style="stroke:#181818;stroke-width:0.5;" width="126" x="338" y="56.1328"/><text fill="#000000" font-family="sans-serif" font-size="14" lengthAdjust="spacing" textLength="112" x="345" y="76.1279">UserSetting API</text><rect fill="#FFFFFF" height="30.2969" rx="2.5" ry="2.5" style="stroke:#181818;stroke-width:0.5;" width="126" x="338" y="1290.2813"/><text fill="#000000" font-family="sans-serif" font-size="14" lengthAdjust="spacing" textLength="112" x="345" y="1310.2764">UserSetting API</text><rect fill="#FFFFFF" height="30.2969" rx="2.5" ry="2.5" style="stroke:#181818;stroke-width:0.5;" width="94" x="474" y="56.1328"/><text fill="#000000" font-family="sans-serif" font-size="14" lengthAdjust="spacing" textLength="80" x="481" y="76.1279">NotifyAlert</text><rect fill="#FFFFFF" height="30.2969" rx="2.5" ry="2.5" style="stroke:#181818;stroke-width:0.5;" width="94" x="474" y="1290.2813"/><text fill="#000000" font-family="sans-serif" font-size="14" lengthAdjust="spacing" textLength="80" x="481" y="1310.2764">NotifyAlert</text><rect fill="#FFFFFF" height="30.2969" rx="2.5" ry="2.5" style="stroke:#181818;stroke-width:0.5;" width="142" x="629" y="56.1328"/><text fill="#000000" font-family="sans-serif" font-size="14" lengthAdjust="spacing" textLength="128" x="636" y="76.1279">ImportWBGTData</text><rect fill="#FFFFFF" height="30.2969" rx="2.5" ry="2.5" style="stroke:#181818;stroke-width:0.5;" width="142" x="629" y="1290.2813"/><text fill="#000000" font-family="sans-serif" font-size="14" lengthAdjust="spacing" textLength="128" x="636" y="1310.2764">ImportWBGTData</text><text fill="#000000" font-family="sans-serif" font-size="14" lengthAdjust="spacing" textLength="44" x="854" y="84.1279">WBGT</text><path d="M861,35.1328 C861,25.1328 879,25.1328 879,25.1328 C879,25.1328 897,25.1328 897,35.1328 L897,61.1328 C897,71.1328 879,71.1328 879,71.1328 C879,71.1328 861,71.1328 861,61.1328 L861,35.1328 " fill="#E2E2F0" style="stroke:#181818;stroke-width:1.5;"/><path d="M861,35.1328 C861,45.1328 879,45.1328 879,45.1328 C879,45.1328 897,45.1328 897,35.1328 " fill="none" style="stroke:#181818;stroke-width:1.5;"/><text fill="#000000" font-family="sans-serif" font-size="14" lengthAdjust="spacing" textLength="44" x="854" y="1303.2764">WBGT</text><path d="M861,1316.5781 C861,1306.5781 879,1306.5781 879,1306.5781 C879,1306.5781 897,1306.5781 897,1316.5781 L897,1342.5781 C897,1352.5781 879,1352.5781 879,1352.5781 C879,1352.5781 861,1352.5781 861,1342.5781 L861,1316.5781 " fill="#E2E2F0" style="stroke:#181818;stroke-width:1.5;"/><path d="M861,1316.5781 C861,1326.5781 879,1326.5781 879,1326.5781 C879,1326.5781 897,1326.5781 897,1316.5781 " fill="none" style="stroke:#181818;stroke-width:1.5;"/><text fill="#000000" font-family="sans-serif" font-size="14" lengthAdjust="spacing" textLength="85" x="914" y="84.1279">UserSetting</text><path d="M941.5,35.1328 C941.5,25.1328 959.5,25.1328 959.5,25.1328 C959.5,25.1328 977.5,25.1328 977.5,35.1328 L977.5,61.1328 C977.5,71.1328 959.5,71.1328 959.5,71.1328 C959.5,71.1328 941.5,71.1328 941.5,61.1328 L941.5,35.1328 " fill="#E2E2F0" style="stroke:#181818;stroke-width:1.5;"/><path d="M941.5,35.1328 C941.5,45.1328 959.5,45.1328 959.5,45.1328 C959.5,45.1328 977.5,45.1328 977.5,35.1328 " fill="none" style="stroke:#181818;stroke-width:1.5;"/><text fill="#000000" font-family="sans-serif" font-size="14" lengthAdjust="spacing" textLength="85" x="914" y="1303.2764">UserSetting</text><path d="M941.5,1316.5781 C941.5,1306.5781 959.5,1306.5781 959.5,1306.5781 C959.5,1306.5781 977.5,1306.5781 977.5,1316.5781 L977.5,1342.5781 C977.5,1352.5781 959.5,1352.5781 959.5,1352.5781 C959.5,1352.5781 941.5,1352.5781 941.5,1342.5781 L941.5,1316.5781 " fill="#E2E2F0" style="stroke:#181818;stroke-width:1.5;"/><path d="M941.5,1316.5781 C941.5,1326.5781 959.5,1326.5781 959.5,1326.5781 C959.5,1326.5781 977.5,1326.5781 977.5,1316.5781 " fill="none" style="stroke:#181818;stroke-width:1.5;"/><text fill="#000000" font-family="sans-serif" font-size="14" lengthAdjust="spacing" textLength="95" x="1015" y="84.1279">Installed App</text><path d="M1047.5,35.1328 C1047.5,25.1328 1065.5,25.1328 1065.5,25.1328 C1065.5,25.1328 1083.5,25.1328 1083.5,35.1328 L1083.5,61.1328 C1083.5,71.1328 1065.5,71.1328 1065.5,71.1328 C1065.5,71.1328 1047.5,71.1328 1047.5,61.1328 L1047.5,35.1328 " fill="#E2E2F0" style="stroke:#181818;stroke-width:1.5;"/><path d="M1047.5,35.1328 C1047.5,45.1328 1065.5,45.1328 1065.5,45.1328 C1065.5,45.1328 1083.5,45.1328 1083.5,35.1328 " fill="none" style="stroke:#181818;stroke-width:1.5;"/><text fill="#000000" font-family="sans-serif" font-size="14" lengthAdjust="spacing" textLength="95" x="1015" y="1303.2764">Installed App</text><path d="M1047.5,1316.5781 C1047.5,1306.5781 1065.5,1306.5781 1065.5,1306.5781 C1065.5,1306.5781 1083.5,1306.5781 1083.5,1316.5781 L1083.5,1342.5781 C1083.5,1352.5781 1065.5,1352.5781 1065.5,1352.5781 C1065.5,1352.5781 1047.5,1352.5781 1047.5,1342.5781 L1047.5,1316.5781 " fill="#E2E2F0" style="stroke:#181818;stroke-width:1.5;"/><path d="M1047.5,1316.5781 C1047.5,1326.5781 1065.5,1326.5781 1065.5,1326.5781 C1065.5,1326.5781 1083.5,1326.5781 1083.5,1316.5781 " fill="none" style="stroke:#181818;stroke-width:1.5;"/><text fill="#000000" font-family="sans-serif" font-size="14" lengthAdjust="spacing" textLength="58" x="1126" y="84.1279">Bot Info</text><path d="M1140,35.1328 C1140,25.1328 1158,25.1328 1158,25.1328 C1158,25.1328 1176,25.1328 1176,35.1328 L1176,61.1328 C1176,71.1328 1158,71.1328 1158,71.1328 C1158,71.1328 1140,71.1328 1140,61.1328 L1140,35.1328 " fill="#E2E2F0" style="stroke:#181818;stroke-width:1.5;"/><path d="M1140,35.1328 C1140,45.1328 1158,45.1328 1158,45.1328 C1158,45.1328 1176,45.1328 1176,35.1328 " fill="none" style="stroke:#181818;stroke-width:1.5;"/><text fill="#000000" font-family="sans-serif" font-size="14" lengthAdjust="spacing" textLength="58" x="1126" y="1303.2764">Bot Info</text><path d="M1140,1316.5781 C1140,1306.5781 1158,1306.5781 1158,1306.5781 C1158,1306.5781 1176,1306.5781 1176,1316.5781 L1176,1342.5781 C1176,1352.5781 1158,1352.5781 1158,1352.5781 C1158,1352.5781 1140,1352.5781 1140,1342.5781 L1140,1316.5781 " fill="#E2E2F0" style="stroke:#181818;stroke-width:1.5;"/><path d="M1140,1316.5781 C1140,1326.5781 1158,1326.5781 1158,1326.5781 C1158,1326.5781 1176,1326.5781 1176,1316.5781 " fill="none" style="stroke:#181818;stroke-width:1.5;"/><text fill="#000000" font-family="sans-serif" font-size="14" lengthAdjust="spacing" textLength="122" x="1200" y="84.1279">Client Credential</text><path d="M1246,35.1328 C1246,25.1328 1264,25.1328 1264,25.1328 C1264,25.1328 1282,25.1328 1282,35.1328 L1282,61.1328 C1282,71.1328 1264,71.1328 1264,71.1328 C1264,71.1328 1246,71.1328 1246,61.1328 L1246,35.1328 " fill="#E2E2F0" style="stroke:#181818;stroke-width:1.5;"/><path d="M1246,35.1328 C1246,45.1328 1264,45.1328 1264,45.1328 C1264,45.1328 1282,45.1328 1282,35.1328 " fill="none" style="stroke:#181818;stroke-width:1.5;"/><text fill="#000000" font-family="sans-serif" font-size="14" lengthAdjust="spacing" textLength="122" x="1200" y="1303.2764">Client Credential</text><path d="M1246,1316.5781 C1246,1306.5781 1264,1306.5781 1264,1306.5781 C1264,1306.5781 1282,1306.5781 1282,1316.5781 L1282,1342.5781 C1282,1352.5781 1264,1352.5781 1264,1352.5781 C1264,1352.5781 1246,1352.5781 1246,1342.5781 L1246,1316.5781 " fill="#E2E2F0" style="stroke:#181818;stroke-width:1.5;"/><path d="M1246,1316.5781 C1246,1326.5781 1264,1326.5781 1264,1326.5781 C1264,1326.5781 1282,1326.5781 1282,1316.5781 " fill="none" style="stroke:#181818;stroke-width:1.5;"/><text fill="#000000" font-family="sans-serif" font-size="14" lengthAdjust="spacing" textLength="98" x="1338" y="84.1279">Access Token</text><path d="M1372,35.1328 C1372,25.1328 1390,25.1328 1390,25.1328 C1390,25.1328 1408,25.1328 1408,35.1328 L1408,61.1328 C1408,71.1328 1390,71.1328 1390,71.1328 C1390,71.1328 1372,71.1328 1372,61.1328 L1372,35.1328 " fill="#E2E2F0" style="stroke:#181818;stroke-width:1.5;"/><path d="M1372,35.1328 C1372,45.1328 1390,45.1328 1390,45.1328 C1390,45.1328 1408,45.1328 1408,35.1328 " fill="none" style="stroke:#181818;stroke-width:1.5;"/><text fill="#000000" font-family="sans-serif" font-size="14" lengthAdjust="spacing" textLength="98" x="1338" y="1303.2764">Access Token</text><path d="M1372,1316.5781 C1372,1306.5781 1390,1306.5781 1390,1306.5781 C1390,1306.5781 1408,1306.5781 1408,1316.5781 L1408,1342.5781 C1408,1352.5781 1390,1352.5781 1390,1352.5781 C1390,1352.5781 1372,1352.5781 1372,1342.5781 L1372,1316.5781 " fill="#E2E2F0" style="stroke:#181818;stroke-width:1.5;"/><path d="M1372,1316.5781 C1372,1326.5781 1390,1326.5781 1390,1326.5781 C1390,1326.5781 1408,1326.5781 1408,1316.5781 " fill="none" style="stroke:#181818;stroke-width:1.5;"/><rect fill="#E2E2F0" height="30.2969" rx="2.5" ry="2.5" style="stroke:#181818;stroke-width:0.5;" width="147" x="1452" y="56.1328"/><text fill="#000000" font-family="sans-serif" font-size="14" lengthAdjust="spacing" textLength="133" x="1459" y="76.1279">WBGT Data Server</text><rect fill="#E2E2F0" height="30.2969" rx="2.5" ry="2.5" style="stroke:#181818;stroke-width:0.5;" width="147" x="1452" y="1290.2813"/><text fill="#000000" font-family="sans-serif" font-size="14" lengthAdjust="spacing" textLength="133" x="1459" y="1310.2764">WBGT Data Server</text><rect fill="#FFFFFF" height="14" style="stroke:#181818;stroke-width:1.0;" width="10" x="98" y="1252.2813"/><rect fill="#FFFFFF" height="115.3984" style="stroke:#181818;stroke-width:1.0;" width="10" x="234" y="333.2266"/><rect fill="#FFFFFF" height="115.3984" style="stroke:#181818;stroke-width:1.0;" width="10" x="234" y="477.7578"/><rect fill="#FFFFFF" height="57.1328" style="stroke:#181818;stroke-width:1.0;" width="10" x="396" y="362.3594"/><rect fill="#FFFFFF" height="57.1328" style="stroke:#181818;stroke-width:1.0;" width="10" x="396" y="506.8906"/><rect fill="#FFFFFF" height="607.8594" style="stroke:#181818;stroke-width:1.0;" width="10" x="516" y="673.4219"/><rect fill="#FFFFFF" height="159.3984" style="stroke:#181818;stroke-width:1.0;" width="10" x="521" y="758.6875"/><rect fill="#FFFFFF" height="28" style="stroke:#181818;stroke-width:1.0;" width="10" x="526" y="868.0859"/><rect fill="#FFFFFF" height="48.1328" style="stroke:#181818;stroke-width:1.0;" width="10" x="521" y="1168.0156"/><rect fill="#FFFFFF" height="91.2656" style="stroke:#181818;stroke-width:1.0;" width="10" x="695" y="169.6953"/><rect fill="#FFFFFF" height="14" style="stroke:#181818;stroke-width:1.0;" width="10" x="874" y="246.9609"/><rect fill="#FFFFFF" height="14" style="stroke:#181818;stroke-width:1.0;" width="10" x="874" y="816.9531"/><rect fill="#FFFFFF" height="14" style="stroke:#181818;stroke-width:1.0;" width="10" x="954.5" y="391.4922"/><rect fill="#FFFFFF" height="14" style="stroke:#181818;stroke-width:1.0;" width="10" x="954.5" y="536.0234"/><rect fill="#FFFFFF" height="14" style="stroke:#181818;stroke-width:1.0;" width="10" x="954.5" y="707.5547"/><rect fill="#FFFFFF" height="14" style="stroke:#181818;stroke-width:1.0;" width="10" x="1060.5" y="1116.8828"/><rect fill="#FFFFFF" height="14" style="stroke:#181818;stroke-width:1.0;" width="10" x="1153" y="1030.6172"/><rect fill="#FFFFFF" height="14" style="stroke:#181818;stroke-width:1.0;" width="10" x="1259" y="1073.75"/><rect fill="#FFFFFF" height="14" style="stroke:#181818;stroke-width:1.0;" width="10" x="1385" y="963.3516"/><rect fill="#FFFFFF" height="14" style="stroke:#181818;stroke-width:1.0;" width="10" x="1385" y="1202.1484"/><rect fill="#FFFFFF" height="14" style="stroke:#181818;stroke-width:1.0;" width="10" x="1520.5" y="203.8281"/><rect fill="#EEEEEE" height="3" style="stroke:#EEEEEE;stroke-width:1.0;" width="1604" x="0" y="117.9961"/><line style="stroke:#000000;stroke-width:1.0;" x1="0" x2="1604" y1="117.9961" y2="117.9961"/><line style="stroke:#000000;stroke-width:1.0;" x1="0" x2="1604" y1="120.9961" y2="120.9961"/><rect fill="#EEEEEE" height="23.1328" style="stroke:#000000;stroke-width:2.0;" width="163" x="720.5" y="107.4297"/><text fill="#000000" font-family="sans-serif" font-size="13" font-weight="bold" lengthAdjust="spacing" textLength="144" x="726.5" y="123.4966">Import WBGT data</text><line style="stroke:#181818;stroke-width:1.0;" x1="700" x2="747" y1="156.6953" y2="156.6953"/><line style="stroke:#181818;stroke-width:1.0;" x1="747" x2="747" y1="156.6953" y2="169.6953"/><line style="stroke:#181818;stroke-width:1.0;" x1="706" x2="747" y1="169.6953" y2="169.6953"/><polygon fill="#181818" points="716,165.6953,706,169.6953,716,173.6953,712,169.6953" style="stroke:#181818;stroke-width:1.0;"/><text fill="#000000" font-family="sans-serif" font-size="13" lengthAdjust="spacing" textLength="165" x="712" y="151.6294">Start process (6am, 5pm)</text><polygon fill="#181818" points="1508.5,199.8281,1518.5,203.8281,1508.5,207.8281,1512.5,203.8281" style="stroke:#181818;stroke-width:1.0;"/><line style="stroke:#181818;stroke-width:1.0;" x1="705" x2="1514.5" y1="203.8281" y2="203.8281"/><text fill="#000000" font-family="sans-serif" font-size="13" lengthAdjust="spacing" textLength="236" x="712" y="198.7622">Get WBGT prediction data (CSV files)</text><polygon fill="#181818" points="716,213.8281,706,217.8281,716,221.8281,712,217.8281" style="stroke:#181818;stroke-width:1.0;"/><line style="stroke:#181818;stroke-width:1.0;stroke-dasharray:2.0,2.0;" x1="710" x2="1524.5" y1="217.8281" y2="217.8281"/><polygon fill="#181818" points="862,242.9609,872,246.9609,862,250.9609,866,246.9609" style="stroke:#181818;stroke-width:1.0;"/><line style="stroke:#181818;stroke-width:1.0;" x1="705" x2="868" y1="246.9609" y2="246.9609"/><text fill="#000000" font-family="sans-serif" font-size="13" lengthAdjust="spacing" textLength="54" x="712" y="241.895">Put data</text><polygon fill="#181818" points="711,256.9609,701,260.9609,711,264.9609,707,260.9609" style="stroke:#181818;stroke-width:1.0;"/><line style="stroke:#181818;stroke-width:1.0;stroke-dasharray:2.0,2.0;" x1="705" x2="878" y1="260.9609" y2="260.9609"/><rect fill="#EEEEEE" height="3" style="stroke:#EEEEEE;stroke-width:1.0;" width="1604" x="0" y="289.5273"/><line style="stroke:#000000;stroke-width:1.0;" x1="0" x2="1604" y1="289.5273" y2="289.5273"/><line style="stroke:#000000;stroke-width:1.0;" x1="0" x2="1604" y1="292.5273" y2="292.5273"/><rect fill="#EEEEEE" height="23.1328" style="stroke:#000000;stroke-width:2.0;" width="191" x="706.5" y="278.9609"/><text fill="#000000" font-family="sans-serif" font-size="13" font-weight="bold" lengthAdjust="spacing" textLength="172" x="712.5" y="295.0278">Configure user setting</text><polygon fill="#181818" points="222,329.2266,232,333.2266,222,337.2266,226,333.2266" style="stroke:#181818;stroke-width:1.0;"/><line style="stroke:#181818;stroke-width:1.0;" x1="38" x2="228" y1="333.2266" y2="333.2266"/><text fill="#000000" font-family="sans-serif" font-size="13" lengthAdjust="spacing" textLength="104" x="45" y="328.1606">Open WOFF App</text><polygon fill="#181818" points="384,358.3594,394,362.3594,384,366.3594,388,362.3594" style="stroke:#181818;stroke-width:1.0;"/><line style="stroke:#181818;stroke-width:1.0;" x1="244" x2="390" y1="362.3594" y2="362.3594"/><text fill="#000000" font-family="sans-serif" font-size="13" lengthAdjust="spacing" textLength="128" x="251" y="357.2935">Get current settings</text><polygon fill="#181818" points="942.5,387.4922,952.5,391.4922,942.5,395.4922,946.5,391.4922" style="stroke:#181818;stroke-width:1.0;"/><line style="stroke:#181818;stroke-width:1.0;" x1="406" x2="948.5" y1="391.4922" y2="391.4922"/><text fill="#000000" font-family="sans-serif" font-size="13" lengthAdjust="spacing" textLength="103" x="413" y="386.4263">Get user setting</text><polygon fill="#181818" points="417,401.4922,407,405.4922,417,409.4922,413,405.4922" style="stroke:#181818;stroke-width:1.0;"/><line style="stroke:#181818;stroke-width:1.0;stroke-dasharray:2.0,2.0;" x1="411" x2="958.5" y1="405.4922" y2="405.4922"/><polygon fill="#181818" points="255,415.4922,245,419.4922,255,423.4922,251,419.4922" style="stroke:#181818;stroke-width:1.0;"/><line style="stroke:#181818;stroke-width:1.0;stroke-dasharray:2.0,2.0;" x1="249" x2="400" y1="419.4922" y2="419.4922"/><polygon fill="#181818" points="49,444.625,39,448.625,49,452.625,45,448.625" style="stroke:#181818;stroke-width:1.0;"/><line style="stroke:#181818;stroke-width:1.0;stroke-dasharray:2.0,2.0;" x1="43" x2="238" y1="448.625" y2="448.625"/><text fill="#000000" font-family="sans-serif" font-size="13" lengthAdjust="spacing" textLength="140" x="55" y="443.5591">Show current settings</text><polygon fill="#181818" points="222,473.7578,232,477.7578,222,481.7578,226,477.7578" style="stroke:#181818;stroke-width:1.0;"/><line style="stroke:#181818;stroke-width:1.0;" x1="38" x2="228" y1="477.7578" y2="477.7578"/><text fill="#000000" font-family="sans-serif" font-size="13" lengthAdjust="spacing" textLength="177" x="45" y="472.6919">Update and submit settings</text><polygon fill="#181818" points="384,502.8906,394,506.8906,384,510.8906,388,506.8906" style="stroke:#181818;stroke-width:1.0;"/><line style="stroke:#181818;stroke-width:1.0;" x1="244" x2="390" y1="506.8906" y2="506.8906"/><text fill="#000000" font-family="sans-serif" font-size="13" lengthAdjust="spacing" textLength="133" x="251" y="501.8247">Put updated settings</text><polygon fill="#181818" points="942.5,532.0234,952.5,536.0234,942.5,540.0234,946.5,536.0234" style="stroke:#181818;stroke-width:1.0;"/><line style="stroke:#181818;stroke-width:1.0;" x1="406" x2="948.5" y1="536.0234" y2="536.0234"/><text fill="#000000" font-family="sans-serif" font-size="13" lengthAdjust="spacing" textLength="101" x="413" y="530.9575">Put user setting</text><polygon fill="#181818" points="417,546.0234,407,550.0234,417,554.0234,413,550.0234" style="stroke:#181818;stroke-width:1.0;"/><line style="stroke:#181818;stroke-width:1.0;stroke-dasharray:2.0,2.0;" x1="411" x2="958.5" y1="550.0234" y2="550.0234"/><polygon fill="#181818" points="255,560.0234,245,564.0234,255,568.0234,251,564.0234" style="stroke:#181818;stroke-width:1.0;"/><line style="stroke:#181818;stroke-width:1.0;stroke-dasharray:2.0,2.0;" x1="249" x2="400" y1="564.0234" y2="564.0234"/><polygon fill="#181818" points="49,589.1563,39,593.1563,49,597.1563,45,593.1563" style="stroke:#181818;stroke-width:1.0;"/><line style="stroke:#181818;stroke-width:1.0;stroke-dasharray:2.0,2.0;" x1="43" x2="238" y1="593.1563" y2="593.1563"/><text fill="#000000" font-family="sans-serif" font-size="13" lengthAdjust="spacing" textLength="105" x="55" y="588.0903">Close WOFF App</text><rect fill="#EEEEEE" height="3" style="stroke:#EEEEEE;stroke-width:1.0;" width="1604" x="0" y="621.7227"/><line style="stroke:#000000;stroke-width:1.0;" x1="0" x2="1604" y1="621.7227" y2="621.7227"/><line style="stroke:#000000;stroke-width:1.0;" x1="0" x2="1604" y1="624.7227" y2="624.7227"/><rect fill="#EEEEEE" height="23.1328" style="stroke:#000000;stroke-width:2.0;" width="67" x="768.5" y="611.1563"/><text fill="#000000" font-family="sans-serif" font-size="13" font-weight="bold" lengthAdjust="spacing" textLength="48" x="774.5" y="627.2231">Notify</text><line style="stroke:#181818;stroke-width:1.0;" x1="521" x2="568" y1="660.4219" y2="660.4219"/><line style="stroke:#181818;stroke-width:1.0;" x1="568" x2="568" y1="660.4219" y2="673.4219"/><line style="stroke:#181818;stroke-width:1.0;" x1="527" x2="568" y1="673.4219" y2="673.4219"/><polygon fill="#181818" points="537,669.4219,527,673.4219,537,677.4219,533,673.4219" style="stroke:#181818;stroke-width:1.0;"/><text fill="#000000" font-family="sans-serif" font-size="13" lengthAdjust="spacing" textLength="165" x="533" y="655.356">Start process (7am, 6pm)</text><polygon fill="#181818" points="942.5,703.5547,952.5,707.5547,942.5,711.5547,946.5,707.5547" style="stroke:#181818;stroke-width:1.0;"/><line style="stroke:#181818;stroke-width:1.0;" x1="526" x2="948.5" y1="707.5547" y2="707.5547"/><text fill="#000000" font-family="sans-serif" font-size="13" lengthAdjust="spacing" textLength="110" x="533" y="702.4888">Get user settings</text><polygon fill="#181818" points="537,717.5547,527,721.5547,537,725.5547,533,721.5547" style="stroke:#181818;stroke-width:1.0;"/><line style="stroke:#181818;stroke-width:1.0;stroke-dasharray:2.0,2.0;" x1="531" x2="958.5" y1="721.5547" y2="721.5547"/><line style="stroke:#181818;stroke-width:1.0;" x1="526" x2="573" y1="745.6875" y2="745.6875"/><line style="stroke:#181818;stroke-width:1.0;" x1="573" x2="573" y1="745.6875" y2="758.6875"/><line style="stroke:#181818;stroke-width:1.0;" x1="532" x2="573" y1="758.6875" y2="758.6875"/><polygon fill="#181818" points="542,754.6875,532,758.6875,542,762.6875,538,758.6875" style="stroke:#181818;stroke-width:1.0;"/><text fill="#000000" font-family="sans-serif" font-size="13" lengthAdjust="spacing" textLength="137" x="538" y="740.6216">Classify user settings</text><path d="M464,778.6875 L542,778.6875 L542,785.8203 L532,795.8203 L464,795.8203 L464,778.6875 " fill="#EEEEEE" style="stroke:#000000;stroke-width:1.5;"/><rect fill="none" height="132.3984" style="stroke:#000000;stroke-width:1.5;" width="450" x="464" y="778.6875"/><text fill="#000000" font-family="sans-serif" font-size="13" font-weight="bold" lengthAdjust="spacing" textLength="33" x="479" y="791.7544">loop</text><text fill="#000000" font-family="sans-serif" font-size="11" font-weight="bold" lengthAdjust="spacing" textLength="260" x="557" y="790.8979">[Check alert levels of each prefecture]</text><polygon fill="#181818" points="862,812.9531,872,816.9531,862,820.9531,866,816.9531" style="stroke:#181818;stroke-width:1.0;"/><line style="stroke:#181818;stroke-width:1.0;" x1="531" x2="868" y1="816.9531" y2="816.9531"/><text fill="#000000" font-family="sans-serif" font-size="13" lengthAdjust="spacing" textLength="99" x="538" y="811.8872">Get WBGT data</text><polygon fill="#181818" points="542,826.9531,532,830.9531,542,834.9531,538,830.9531" style="stroke:#181818;stroke-width:1.0;"/><line style="stroke:#181818;stroke-width:1.0;stroke-dasharray:2.0,2.0;" x1="536" x2="878" y1="830.9531" y2="830.9531"/><line style="stroke:#181818;stroke-width:1.0;" x1="536" x2="578" y1="860.0859" y2="860.0859"/><line style="stroke:#181818;stroke-width:1.0;" x1="578" x2="578" y1="860.0859" y2="873.0859"/><line style="stroke:#181818;stroke-width:1.0;" x1="537" x2="578" y1="873.0859" y2="873.0859"/><polygon fill="#181818" points="547,869.0859,537,873.0859,547,877.0859,543,873.0859" style="stroke:#181818;stroke-width:1.0;"/><text fill="#000000" font-family="sans-serif" font-size="13" lengthAdjust="spacing" textLength="131" x="543" y="855.02">Check the alert level</text><path d="M71,925.0859 L149,925.0859 L149,932.2188 L139,942.2188 L71,942.2188 L71,925.0859 " fill="#EEEEEE" style="stroke:#000000;stroke-width:1.5;"/><rect fill="none" height="349.1953" style="stroke:#000000;stroke-width:1.5;" width="1391" x="71" y="925.0859"/><text fill="#000000" font-family="sans-serif" font-size="13" font-weight="bold" lengthAdjust="spacing" textLength="33" x="86" y="938.1528">loop</text><text fill="#000000" font-family="sans-serif" font-size="11" font-weight="bold" lengthAdjust="spacing" textLength="225" x="164" y="937.2964">[Send alert message to all users.]</text><polygon fill="#181818" points="1373,959.3516,1383,963.3516,1373,967.3516,1377,963.3516" style="stroke:#181818;stroke-width:1.0;"/><line style="stroke:#181818;stroke-width:1.0;" x1="526" x2="1379" y1="963.3516" y2="963.3516"/><text fill="#000000" font-family="sans-serif" font-size="13" lengthAdjust="spacing" textLength="115" x="533" y="958.2856">Get Access Token</text><polygon fill="#181818" points="537,973.3516,527,977.3516,537,981.3516,533,977.3516" style="stroke:#181818;stroke-width:1.0;"/><line style="stroke:#181818;stroke-width:1.0;stroke-dasharray:2.0,2.0;" x1="531" x2="1389" y1="977.3516" y2="977.3516"/><path d="M464,992.3516 L530,992.3516 L530,999.4844 L520,1009.4844 L464,1009.4844 L464,992.3516 " fill="#EEEEEE" style="stroke:#000000;stroke-width:1.5;"/><rect fill="none" height="231.7969" style="stroke:#000000;stroke-width:1.5;" width="988" x="464" y="992.3516"/><text fill="#000000" font-family="sans-serif" font-size="13" font-weight="bold" lengthAdjust="spacing" textLength="21" x="479" y="1005.4185">alt</text><text fill="#000000" font-family="sans-serif" font-size="11" font-weight="bold" lengthAdjust="spacing" textLength="237" x="545" y="1004.562">[Access Token is empty or expired.]</text><polygon fill="#181818" points="1141,1026.6172,1151,1030.6172,1141,1034.6172,1145,1030.6172" style="stroke:#181818;stroke-width:1.0;"/><line style="stroke:#181818;stroke-width:1.0;" x1="526" x2="1147" y1="1030.6172" y2="1030.6172"/><text fill="#000000" font-family="sans-serif" font-size="13" lengthAdjust="spacing" textLength="76" x="533" y="1025.5513">Get Bot info</text><polygon fill="#181818" points="537,1040.6172,527,1044.6172,537,1048.6172,533,1044.6172" style="stroke:#181818;stroke-width:1.0;"/><line style="stroke:#181818;stroke-width:1.0;stroke-dasharray:2.0,2.0;" x1="531" x2="1157" y1="1044.6172" y2="1044.6172"/><polygon fill="#181818" points="1247,1069.75,1257,1073.75,1247,1077.75,1251,1073.75" style="stroke:#181818;stroke-width:1.0;"/><line style="stroke:#181818;stroke-width:1.0;" x1="526" x2="1253" y1="1073.75" y2="1073.75"/><text fill="#000000" font-family="sans-serif" font-size="13" lengthAdjust="spacing" textLength="135" x="533" y="1068.6841">Get client credentials</text><polygon fill="#181818" points="537,1083.75,527,1087.75,537,1091.75,533,1087.75" style="stroke:#181818;stroke-width:1.0;"/><line style="stroke:#181818;stroke-width:1.0;stroke-dasharray:2.0,2.0;" x1="531" x2="1263" y1="1087.75" y2="1087.75"/><polygon fill="#181818" points="1048.5,1112.8828,1058.5,1116.8828,1048.5,1120.8828,1052.5,1116.8828" style="stroke:#181818;stroke-width:1.0;"/><line style="stroke:#181818;stroke-width:1.0;" x1="526" x2="1054.5" y1="1116.8828" y2="1116.8828"/><text fill="#000000" font-family="sans-serif" font-size="13" lengthAdjust="spacing" textLength="136" x="533" y="1111.8169">Get installed app info</text><polygon fill="#181818" points="537,1126.8828,527,1130.8828,537,1134.8828,533,1130.8828" style="stroke:#181818;stroke-width:1.0;"/><line style="stroke:#181818;stroke-width:1.0;stroke-dasharray:2.0,2.0;" x1="531" x2="1064.5" y1="1130.8828" y2="1130.8828"/><line style="stroke:#181818;stroke-width:1.0;" x1="526" x2="573" y1="1155.0156" y2="1155.0156"/><line style="stroke:#181818;stroke-width:1.0;" x1="573" x2="573" y1="1155.0156" y2="1168.0156"/><line style="stroke:#181818;stroke-width:1.0;" x1="532" x2="573" y1="1168.0156" y2="1168.0156"/><polygon fill="#181818" points="542,1164.0156,532,1168.0156,542,1172.0156,538,1168.0156" style="stroke:#181818;stroke-width:1.0;"/><text fill="#000000" font-family="sans-serif" font-size="13" lengthAdjust="spacing" textLength="152" x="538" y="1149.9497">Generate Access Token</text><polygon fill="#181818" points="1373,1198.1484,1383,1202.1484,1373,1206.1484,1377,1202.1484" style="stroke:#181818;stroke-width:1.0;"/><line style="stroke:#181818;stroke-width:1.0;" x1="531" x2="1379" y1="1202.1484" y2="1202.1484"/><text fill="#000000" font-family="sans-serif" font-size="13" lengthAdjust="spacing" textLength="113" x="538" y="1197.0825">Put Access Token</text><polygon fill="#181818" points="537,1212.1484,527,1216.1484,537,1220.1484,533,1216.1484" style="stroke:#181818;stroke-width:1.0;"/><line style="stroke:#181818;stroke-width:1.0;stroke-dasharray:2.0,2.0;" x1="531" x2="1389" y1="1216.1484" y2="1216.1484"/><polygon fill="#181818" points="119,1248.2813,109,1252.2813,119,1256.2813,115,1252.2813" style="stroke:#181818;stroke-width:1.0;"/><line style="stroke:#181818;stroke-width:1.0;" x1="113" x2="515" y1="1252.2813" y2="1252.2813"/><text fill="#000000" font-family="sans-serif" font-size="13" lengthAdjust="spacing" textLength="95" x="125" y="1247.2153">Send message</text><polygon fill="#181818" points="504,1262.2813,514,1266.2813,504,1270.2813,508,1266.2813" style="stroke:#181818;stroke-width:1.0;"/><line style="stroke:#181818;stroke-width:1.0;stroke-dasharray:2.0,2.0;" x1="103" x2="510" y1="1266.2813" y2="1266.2813"/><!--SRC=[bLR9Rjim4BthAmR99G7Qtfe21bp0Lfh0Q9i4LHAVQMbi4Q54WQIo_7s7YsLgSTFaOl9vbiUPD-EmraYM6_xC38AiauGkKi79Rwmsg4w0QV379Dd8L_Yrkla1wzi_FpCu5NnNcfr2h1EWluOfmtFUiDh0oJqJJyxP7k3qfUG6nrRhswihM3IDixGNEk-DiIw0ClgqQznag9w9nIZ6WqQLeJ6yti7YRkL3uIQ22PqCkcGcBu-5lP66RzyM0fLn8Prn11vzqwfgf3BhvVNz9JFiu7l09ybOOqsLzn4BkcsOHYeHERWWbqjx77mRlJ8OHSZ0TbLhmuJ0egluvRB321gOBwM1LRsLmPAkzZOmIWL7UdIgiA1FpaImzhY51mwBF4TDgf1FM0TR3pdaK9A-J6pHR870TyltcC3Gl6G-1rzUXxfqC9ydWxf__Zu0Pf0PoWEDaexLsGMhFi7NfZeVknxIpU0QGwA67iXfU6JjSvwbsIDikK1zdYWqhQh7WNmVPt3N6kUqDonmFuRkFQcijtpNAeIMEWewA9nUvSUH6FbvcS5jWpNiHoa9C7q_709FF6-LiZqB4NKoihCS8yIxnIpsb7iVa9NoPHnznFQXAUogOTHftMug7ZFv1tLRhjQv5X-XxjpUfPuAIUBiIcZhxqUzKr4q-K564JBIqJUheujEHptdTsghUy9v9sqgcDQMPZz28gHi82qnVmBcbfN0PnGQv1P8PQNLxHPpIkEtpHH9Bz9EwKwfrZQmctQROEX8c19Z8dud7FHEKv_qzE_uPtOPUA-Agifs24OI8DnhzPUZrAE5ubyGBvtu4UxCHDy0k0Qi6lC6z3E8hmsd6VUvZkKBgz7dickJxnVbe6370XosPHXHlrNpRglgZqIBTxgFnxlDp-ZtzMFinYsznXgL7U5HMV-h8NOY9pq7L28zsAlLo7Hy-n_6pAibw2JkyK1RVm40]--></g></svg>